<svg width="158" height="125" viewBox="0 0 158 125" fill="none" xmlns="http://www.w3.org/2000/svg">
<path d="M78.8463 0.302734L76.5013 1.77148L9.00125 42.8965L0.40625 48.0371L8.84625 52.9956V102.563C5.85625 104.607 3.84625 108.32 3.84625 112.662C3.84625 115.778 4.89982 118.767 6.77518 120.971C8.65055 123.174 11.1941 124.412 13.8462 124.412C16.4984 124.412 19.042 123.174 20.9173 120.971C22.7927 118.767 23.8463 115.778 23.8463 112.662C23.8463 108.326 21.8363 104.607 18.8463 102.563V59.0527L28.8463 65.1099V95.0371C28.8463 97.628 29.8613 99.9721 31.0363 101.464C32.2063 102.957 33.6313 103.85 35.0963 104.766C38.0463 106.581 41.5462 107.868 45.8763 108.99C54.5513 111.264 66.1113 112.662 78.8463 112.662C91.5813 112.662 103.146 111.264 111.816 108.99C116.151 107.868 119.646 106.581 122.596 104.766C124.061 103.85 125.486 102.957 126.661 101.464C128.034 99.7079 128.811 97.4214 128.846 95.0371V65.1099L148.691 53.1777L157.281 48.0371L148.691 42.8965L81.1912 1.77148L78.8463 0.302734ZM78.8463 13.5215L135.411 48.0371L126.501 53.3599C125.361 52.0168 124.042 50.9015 122.596 50.0581C119.666 48.2427 116.146 46.9561 111.816 45.834C103.166 43.5604 91.6413 42.1621 78.8463 42.1621C66.0513 42.1621 54.5312 43.5604 45.8763 45.834C41.5413 46.9561 38.0263 48.2427 35.0963 50.0581C33.6503 50.9015 32.3312 52.0168 31.1912 53.3599L22.2812 48.0371L78.8463 13.5215ZM78.8463 53.9121C91.0513 53.9121 102.031 55.2222 109.626 57.2197C113.416 58.2009 116.461 59.3524 118.066 60.3335C118.571 60.6566 118.651 60.8916 118.846 61.0737V83.4692C116.551 82.4912 114.202 81.6943 111.816 81.084C103.141 78.8104 91.5813 77.4121 78.8463 77.4121C66.1113 77.4121 54.5462 78.8104 45.8763 81.084C43.2213 81.7714 40.9363 82.5762 38.8463 83.4692V61.0796C39.0463 60.8975 39.1213 60.6684 39.6263 60.3452C41.2262 59.3582 44.2762 58.2067 48.0662 57.2256C55.6662 55.2222 66.6413 53.9121 78.8463 53.9121ZM78.8463 89.1621C90.9763 89.1621 102.011 90.4722 109.626 92.4697C111.986 93.0517 114.289 93.9119 116.501 95.0371C114.289 96.1643 111.986 97.0265 109.626 97.6104C102.011 99.6079 90.9763 100.912 78.8463 100.912C66.7162 100.912 55.6812 99.602 48.0662 97.6045C45.7069 97.0225 43.4036 96.1623 41.1912 95.0371C43.4034 93.9099 45.7068 93.0478 48.0662 92.4639C55.6812 90.4722 66.7162 89.1621 78.8463 89.1621Z" fill="white"/>
</svg>
