<svg width="80" height="80" viewBox="0 0 80 80" fill="none" xmlns="http://www.w3.org/2000/svg">
<path d="M69.6 10.3303C67.1567 7.88699 64.2167 6.66699 60.7767 6.66699H19.1534C15.7134 6.66699 12.7734 7.88699 10.33 10.3303C7.88669 12.7737 6.66669 15.7137 6.66669 19.1537V60.777C6.66669 64.217 7.88669 67.157 10.33 69.6003C12.7734 72.0437 15.7134 73.2637 19.1534 73.2637H28.8667C29.5 73.2637 29.9767 73.2403 30.2967 73.197C30.669 73.1223 31.005 72.9238 31.25 72.6337C31.5667 72.3003 31.7267 71.817 31.7267 71.1837L31.7034 68.2337C31.69 66.3537 31.6834 64.867 31.6834 63.767L30.6834 63.9403C30.05 64.057 29.25 64.107 28.28 64.0937C27.269 64.075 26.2612 63.9735 25.2667 63.7903C24.208 63.5949 23.2114 63.1491 22.36 62.4903C21.4683 61.8158 20.8033 60.8856 20.4534 59.8237L20.02 58.8237C19.6548 58.0348 19.1959 57.2928 18.6534 56.6137C18.0334 55.8037 17.4034 55.257 16.7667 54.967L16.4667 54.7503C16.2575 54.6005 16.0672 54.4259 15.9 54.2303C15.7403 54.0488 15.6089 53.8443 15.51 53.6237C15.4234 53.4203 15.4967 53.2537 15.7267 53.1237C15.96 52.9903 16.3767 52.927 16.9867 52.927L17.8534 53.0603C18.43 53.1737 19.1467 53.5203 19.9967 54.097C20.8569 54.6834 21.5754 55.4544 22.1 56.3537C22.7667 57.537 23.5667 58.4403 24.5067 59.0637C25.4467 59.6837 26.3934 59.997 27.3467 59.997C28.3 59.997 29.1234 59.9237 29.82 59.7803C30.4937 59.641 31.1484 59.4217 31.77 59.127C32.03 57.1937 32.7367 55.7003 33.8934 54.6603C32.3946 54.5134 30.9092 54.2526 29.45 53.8803C28.026 53.4891 26.6565 52.9214 25.3734 52.1903C24.0308 51.4594 22.845 50.4718 21.8834 49.2837C20.96 48.127 20.2 46.6103 19.6067 44.7337C19.0167 42.8537 18.72 40.6837 18.72 38.227C18.72 34.7303 19.86 31.7537 22.1434 29.2937C21.0767 26.667 21.1767 23.717 22.4467 20.4537C23.2867 20.1903 24.53 20.387 26.1767 21.037C27.8234 21.687 29.03 22.2437 29.7967 22.7037C30.5634 23.1703 31.1767 23.5603 31.64 23.877C34.3499 23.1228 37.1505 22.7438 39.9634 22.7503C42.8267 22.7503 45.6 23.127 48.29 23.877L49.9367 22.837C51.2033 22.0765 52.5393 21.4381 53.9267 20.9303C55.46 20.3503 56.6267 20.1937 57.44 20.4537C58.74 23.7203 58.8534 26.667 57.7834 29.297C60.0667 31.7537 61.21 34.7303 61.21 38.2303C61.21 40.687 60.9134 42.8637 60.32 44.7537C59.73 46.647 58.9634 48.1637 58.0234 49.307C57.0447 50.4799 55.854 51.4581 54.5134 52.1903C53.1134 52.9703 51.7534 53.5337 50.4367 53.8803C48.9776 54.2538 47.4922 54.5157 45.9934 54.6637C47.4934 55.9637 48.2467 58.0137 48.2467 60.817V71.1837C48.2467 71.6737 48.3167 72.0703 48.4634 72.3737C48.5308 72.5198 48.6269 72.6509 48.746 72.7591C48.8651 72.8673 49.0048 72.9505 49.1567 73.0037C49.4767 73.117 49.7567 73.1903 50.0034 73.217C50.25 73.2503 50.6034 73.2603 51.0634 73.2603H60.7767C64.2167 73.2603 67.1567 72.0403 69.6 69.597C72.04 67.157 73.2634 64.2137 73.2634 60.7737V19.1537C73.2634 15.7137 72.0433 12.7737 69.6 10.3303Z" fill="#212121"/>
</svg>
