<svg width="150" height="150" viewBox="0 0 150 150" fill="none" xmlns="http://www.w3.org/2000/svg">
<g clip-path="url(#clip0_161_29)">
<path d="M114.844 0H35.1562C15.74 0 0 15.74 0 35.1562V114.844C0 134.26 15.74 150 35.1562 150H114.844C134.26 150 150 134.26 150 114.844V35.1562C150 15.74 134.26 0 114.844 0Z" fill="#F0DB4F"/>
<path d="M39.4406 125.351L50.9192 118.404C53.134 122.33 55.1485 125.653 59.9807 125.653C64.6125 125.653 67.5328 123.841 67.5328 116.793V68.8648H81.6293V116.993C81.6293 131.592 73.0711 138.238 60.5848 138.238C49.3084 138.238 42.7629 132.398 39.4401 125.35M89.2858 123.84L100.763 117.195C103.785 122.129 107.712 125.754 114.659 125.754C120.5 125.754 124.224 122.834 124.224 118.806C124.224 113.973 120.398 112.261 113.954 109.443L110.43 107.932C100.26 103.603 93.5139 98.1652 93.5139 86.6867C93.5139 76.1141 101.569 68.0586 114.156 68.0586C123.117 68.0586 129.561 71.1805 134.193 79.3361L123.217 86.3844C120.8 82.0549 118.184 80.3434 114.156 80.3434C110.027 80.3434 107.409 82.9613 107.409 86.3844C107.409 90.6131 110.027 92.3252 116.068 94.9438L119.592 96.4537C131.574 101.589 138.321 106.824 138.321 118.604C138.321 131.292 128.353 138.239 114.961 138.239C101.872 138.239 93.4137 131.997 89.2858 123.84Z" fill="#323330"/>
</g>
<defs>
<clipPath id="clip0_161_29">
<rect width="150" height="150" fill="white"/>
</clipPath>
</defs>
</svg>
