<svg width="80" height="80" viewBox="0 0 80 80" fill="none" xmlns="http://www.w3.org/2000/svg">
<path d="M33.3333 50.0003L50.6333 40.0003L33.3333 30.0003V50.0003ZM71.8667 23.9003C72.3 25.467 72.6 27.567 72.8 30.2337C73.0333 32.9003 73.1333 35.2003 73.1333 37.2003L73.3333 40.0003C73.3333 47.3003 72.8 52.667 71.8667 56.1003C71.0333 59.1003 69.1 61.0337 66.1 61.867C64.5333 62.3003 61.6667 62.6003 57.2667 62.8003C52.9333 63.0337 48.9667 63.1337 45.3 63.1337L40 63.3337C26.0333 63.3337 17.3333 62.8003 13.9 61.867C10.9 61.0337 8.96666 59.1003 8.13332 56.1003C7.69999 54.5337 7.39999 52.4337 7.19999 49.767C6.96666 47.1003 6.86666 44.8003 6.86666 42.8003L6.66666 40.0003C6.66666 32.7003 7.19999 27.3337 8.13332 23.9003C8.96666 20.9003 10.9 18.967 13.9 18.1337C15.4667 17.7003 18.3333 17.4003 22.7333 17.2003C27.0667 16.967 31.0333 16.867 34.7 16.867L40 16.667C53.9667 16.667 62.6667 17.2003 66.1 18.1337C69.1 18.967 71.0333 20.9003 71.8667 23.9003Z" fill="#212121"/>
</svg>
