<svg width="79" height="79" viewBox="0 0 79 79" fill="none" xmlns="http://www.w3.org/2000/svg">
<g clip-path="url(#clip0_20_424)">
<path fill-rule="evenodd" clip-rule="evenodd" d="M26.8995 52.1039C39.556 64.7604 51.2842 66.1462 54.7272 66.2746C58.8879 66.426 63.1342 63.029 64.9709 59.5497C62.0413 56.1132 58.2263 53.4469 54.0492 50.5568C51.5837 53.019 48.5455 57.5944 44.5 55.9552C42.1992 55.0302 36.5178 52.4133 31.5539 47.4462C26.5868 42.4824 23.9732 36.801 23.0417 34.5034C21.4024 30.4513 25.991 27.4065 28.4565 24.9411C25.5664 20.6948 22.9462 16.781 19.5163 13.9996C15.9876 15.8429 12.5709 20.0563 12.7256 24.2729C12.854 27.716 14.2397 39.4442 26.8995 52.1039ZM54.4837 72.8546C49.7437 72.6801 36.3104 70.8236 22.2418 56.7583C8.1765 42.6898 6.32329 29.2598 6.14554 24.5165C5.88221 17.288 11.4188 10.2668 17.8145 7.52488C18.5847 7.19231 19.4281 7.06569 20.262 7.15745C21.0958 7.2492 21.8915 7.55618 22.571 8.04825C27.864 11.9094 31.5144 17.7587 34.6514 22.3407C35.3039 23.2934 35.6029 24.4444 35.4965 25.5943C35.3901 26.7442 34.8851 27.8208 34.0687 28.6376L29.6053 33.1044C30.6421 35.3921 32.7521 39.3355 36.2083 42.7918C39.6646 46.248 43.608 48.358 45.899 49.3949L50.3592 44.9314C51.1792 44.1134 52.2602 43.609 53.4139 43.5061C54.5676 43.4033 55.7208 43.7085 56.6726 44.3685C61.3468 47.6075 66.8373 51.2053 70.84 56.3304C71.372 57.0148 71.7104 57.8295 71.8198 58.6894C71.9293 59.5492 71.8057 60.4227 71.4621 61.2185C68.707 67.6472 61.7352 73.1212 54.4837 72.8546Z" fill="#6231A2"/>
</g>
<defs>
<clipPath id="clip0_20_424">
<rect width="79" height="79" fill="white"/>
</clipPath>
</defs>
</svg>
