<svg width="300" height="300" viewBox="0 0 300 300" fill="none" xmlns="http://www.w3.org/2000/svg">
<path d="M237.5 50.0001H185.25C182.69 42.6931 177.923 36.3621 171.608 31.8828C165.293 27.4036 157.742 24.9976 150 24.9976C142.258 24.9976 134.707 27.4036 128.392 31.8828C122.077 36.3621 117.31 42.6931 114.75 50.0001H62.5C55.8757 50.0199 49.5283 52.6601 44.8442 57.3443C40.1601 62.0284 37.5198 68.3758 37.5 75.0001V250C37.5198 256.624 40.1601 262.972 44.8442 267.656C49.5283 272.34 55.8757 274.98 62.5 275H237.5C244.124 274.98 250.472 272.34 255.156 267.656C259.84 262.972 262.48 256.624 262.5 250V75.0001C262.48 68.3758 259.84 62.0284 255.156 57.3443C250.472 52.6601 244.124 50.0199 237.5 50.0001ZM150 50.0001C152.472 50.0001 154.889 50.7332 156.945 52.1067C159 53.4802 160.602 55.4325 161.548 57.7165C162.495 60.0006 162.742 62.514 162.26 64.9387C161.778 67.3635 160.587 69.5908 158.839 71.3389C157.091 73.0871 154.863 74.2776 152.439 74.7599C150.014 75.2422 147.501 74.9947 145.216 74.0486C142.932 73.1025 140.98 71.5003 139.607 69.4447C138.233 67.3891 137.5 64.9724 137.5 62.5001C137.51 59.1879 138.83 56.0142 141.172 53.6722C143.514 51.3301 146.688 50.01 150 50.0001ZM125 112.5L159.875 147.425L191.375 115.925L175 100H225V150L209.05 133.613L159.9 182.8L125 147.875L92.675 180.175L75 162.5L125 112.5ZM237.5 237.5H62.5V212.5H237.5V237.5Z" fill="white"/>
</svg>
